<svg width="20" height="22" viewBox="0 0 20 22" fill="none" xmlns="http://www.w3.org/2000/svg">
<path d="M10.1701 22C10.0482 22 9.93843 22 9.81647 22C9.49939 21.8921 9.18231 21.7961 8.87742 21.6762C6.7554 20.8847 4.91389 19.6735 3.36506 18.0545C2.31625 16.9632 1.46256 15.74 0.974742 14.3009C0.450336 12.7539 0.182036 11.1469 0.0722763 9.52794C-0.0740695 7.41728 0.0112989 5.30662 0.243013 3.21995C0.291795 2.76424 0.474727 2.57236 0.92596 2.44045C3.84068 1.64895 6.74321 0.857454 9.64573 0.0539657C9.88964 -0.0179886 10.1092 -0.0179886 10.3531 0.0539657C13.2556 0.845462 16.1581 1.63696 19.0606 2.44045C19.5241 2.57236 19.6948 2.76424 19.7558 3.24394C19.9387 4.91087 20.0363 6.56582 19.9875 8.24475C19.9509 9.83974 19.7924 11.4347 19.4021 12.9937C19.1216 14.133 18.7558 15.2243 18.1094 16.2077C16.4996 18.6182 14.3288 20.357 11.6336 21.4843C11.1458 21.6762 10.6458 21.8321 10.1701 22ZM9.13352 11.2309C9.04815 11.1229 9.01157 11.051 8.95059 11.003C8.19447 10.2595 7.43835 9.51594 6.68223 8.77242C6.30417 8.40065 5.90172 8.40065 5.51146 8.77242C5.29194 8.98828 5.07243 9.19215 4.8651 9.40801C4.52363 9.75579 4.52363 10.1635 4.8773 10.5113C6.10904 11.7345 7.35298 12.9458 8.58473 14.157C8.9262 14.4928 9.34085 14.4928 9.68232 14.157C11.7068 12.1663 13.7312 10.1755 15.7557 8.18479C16.085 7.861 16.085 7.45326 15.7557 7.11747C15.6093 6.97356 15.463 6.84165 15.3288 6.68575C14.7313 6.01417 14.341 6.03816 13.6946 6.68575C12.2556 8.13682 10.7799 9.56391 9.32865 10.991C9.27987 11.051 9.23109 11.1229 9.13352 11.2309Z" fill="#18191D"/>
</svg>
