<svg width="202" height="38" viewBox="0 0 202 38" fill="none" xmlns="http://www.w3.org/2000/svg">
<g clip-path="url(#clip0_341_78)">
<path d="M52.8746 29.6881L45.8042 8.07556H50.9912L57.1353 27.2181H54.5418L60.9638 8.07556H65.5951L71.7701 27.2181H69.2692L75.5677 8.07556H80.3533L73.283 29.6881H67.9107L62.4458 12.8921H63.8661L58.2468 29.6881H52.8746ZM89.8134 29.9351C87.9197 29.9351 86.2525 29.5646 84.8117 28.8236C83.3914 28.0826 82.2901 27.074 81.508 25.7978C80.7258 24.5011 80.3348 23.0294 80.3348 21.3827C80.3348 19.7154 80.7155 18.2438 81.4772 16.9676C82.2593 15.6708 83.3193 14.6623 84.6573 13.9418C85.9951 13.2008 87.508 12.8303 89.1959 12.8303C90.822 12.8303 92.2834 13.1803 93.5802 13.8801C94.8975 14.5593 95.9369 15.5473 96.6985 16.8441C97.4601 18.1203 97.8409 19.6537 97.8409 21.4444C97.8409 21.6297 97.8306 21.8458 97.81 22.0928C97.7894 22.3193 97.7688 22.5354 97.7483 22.7412H84.2559V19.9316H95.2166L93.364 20.7652C93.364 19.9007 93.189 19.1494 92.8392 18.5113C92.4892 17.8733 92.0055 17.3793 91.388 17.0293C90.7705 16.6588 90.0501 16.4736 89.2268 16.4736C88.4034 16.4736 87.6727 16.6588 87.0347 17.0293C86.4172 17.3793 85.9334 17.8835 85.5835 18.5422C85.2336 19.1802 85.0587 19.9419 85.0587 20.8269V21.5679C85.0587 22.4736 85.2541 23.2764 85.6453 23.9762C86.0569 24.6554 86.623 25.1803 87.3434 25.5508C88.0844 25.9008 88.9489 26.0757 89.9369 26.0757C90.822 26.0757 91.5938 25.9419 92.2525 25.6743C92.9318 25.4068 93.5493 25.0054 94.105 24.4702L96.6677 27.2489C95.906 28.1134 94.9489 28.7824 93.7963 29.2558C92.6436 29.7086 91.316 29.9351 89.8134 29.9351ZM110.866 29.9351C109.404 29.9351 108.149 29.6263 107.099 29.0088C106.049 28.3913 105.247 27.4547 104.691 26.1992C104.135 24.923 103.857 23.3175 103.857 21.3827C103.857 19.4272 104.145 17.8217 104.722 16.5662C105.319 15.3106 106.142 14.3741 107.192 13.7566C108.241 13.1391 109.466 12.8303 110.866 12.8303C112.43 12.8303 113.83 13.1803 115.065 13.8801C116.32 14.5799 117.308 15.5679 118.029 16.8441C118.77 18.1203 119.141 19.6331 119.141 21.3827C119.141 23.1117 118.77 24.6142 118.029 25.8904C117.308 27.1666 116.32 28.1649 115.065 28.8853C113.83 29.5851 112.43 29.9351 110.866 29.9351ZM101.048 29.6881V6.77881H105.864V16.4427L105.555 21.3518L105.648 26.2918V29.6881H101.048ZM110.032 25.9831C110.835 25.9831 111.545 25.7978 112.163 25.4273C112.801 25.0568 113.305 24.5319 113.675 23.8527C114.066 23.1529 114.262 22.3295 114.262 21.3827C114.262 20.4152 114.066 19.5919 113.675 18.9127C113.305 18.2334 112.801 17.7086 112.163 17.3381C111.545 16.9676 110.835 16.7823 110.032 16.7823C109.229 16.7823 108.509 16.9676 107.871 17.3381C107.233 17.7086 106.729 18.2334 106.358 18.9127C105.988 19.5919 105.802 20.4152 105.802 21.3827C105.802 22.3295 105.988 23.1529 106.358 23.8527C106.729 24.5319 107.233 25.0568 107.871 25.4273C108.509 25.7978 109.229 25.9831 110.032 25.9831ZM126.348 26.2918L126.471 20.4256L134.221 13.0773H139.963L132.523 20.6417L130.022 22.6794L126.348 26.2918ZM122.365 29.6881V6.77881H127.181V29.6881H122.365ZM134.746 29.6881L129.126 22.7103L132.152 18.9744L140.581 29.6881H134.746ZM142.747 29.6881V6.77881H147.563V29.6881H142.747ZM152.033 29.6881V13.0773H156.634V17.7703L155.985 16.4118C156.479 15.2386 157.272 14.3535 158.363 13.7566C159.454 13.1391 160.782 12.8303 162.345 12.8303V17.2763C162.14 17.2558 161.955 17.2454 161.79 17.2454C161.626 17.2249 161.45 17.2146 161.265 17.2146C159.948 17.2146 158.878 17.5954 158.054 18.3569C157.251 19.0979 156.85 20.2609 156.85 21.8458V29.6881H152.033ZM174.313 29.6881V26.4462L174.004 25.7361V19.9316C174.004 18.9024 173.685 18.0996 173.047 17.5233C172.43 16.947 171.473 16.6588 170.176 16.6588C169.291 16.6588 168.416 16.8029 167.551 17.0911C166.707 17.3586 165.988 17.7291 165.39 18.2026L163.661 14.8372C164.567 14.1991 165.657 13.7051 166.934 13.3552C168.211 13.0052 169.507 12.8303 170.824 12.8303C173.356 12.8303 175.321 13.4273 176.721 14.6211C178.121 15.8149 178.821 17.6777 178.821 20.2094V29.6881H174.313ZM169.25 29.9351C167.953 29.9351 166.841 29.7189 165.915 29.2867C164.989 28.8339 164.279 28.2266 163.785 27.4651C163.291 26.7035 163.044 25.8492 163.044 24.9024C163.044 23.9144 163.28 23.0499 163.754 22.3089C164.248 21.5679 165.02 20.9916 166.069 20.5799C167.119 20.1477 168.488 19.9316 170.176 19.9316H174.591V22.7412H170.701C169.569 22.7412 168.786 22.9264 168.354 23.2969C167.942 23.6674 167.737 24.1306 167.737 24.6863C167.737 25.3038 167.973 25.7978 168.447 26.1683C168.941 26.5183 169.609 26.6932 170.454 26.6932C171.256 26.6932 171.977 26.5079 172.615 26.1374C173.253 25.7464 173.716 25.1803 174.004 24.4393L174.745 26.6623C174.395 27.7326 173.757 28.5457 172.831 29.1014C171.905 29.6572 170.711 29.9351 169.25 29.9351ZM187.163 26.2918L187.286 20.4256L195.036 13.0773H200.779L193.338 20.6417L190.837 22.6794L187.163 26.2918ZM183.18 29.6881V6.77881H187.997V29.6881H183.18ZM195.561 29.6881L189.942 22.7103L192.967 18.9744L201.396 29.6881H195.561Z" fill="#8A8A8A"/>
<path d="M17.5437 1.18799C18.1213 1.18799 18.6987 1.18799 19.2763 1.18799C20.1715 1.31265 21.0667 1.38936 21.9524 1.55237C26.592 2.42498 30.3847 4.6976 33.1763 8.51406C35.91 12.2633 37.0651 16.4826 36.7667 21.1045C36.5646 24.2017 35.6501 27.069 33.9655 29.6772C31.6553 33.2634 28.3728 35.6128 24.3877 37.0512C24.3204 37.0703 24.2529 37.0703 24.1663 37.0799C24.1567 36.9745 24.1471 36.8978 24.1471 36.8114C24.1471 33.2443 24.1471 29.6676 24.1567 26.1004C24.1567 25.9566 24.2337 25.7743 24.3396 25.6689C25.2733 24.7196 26.2263 23.7798 27.16 22.8402C27.2947 22.6963 27.4102 22.6867 27.5931 22.7442C27.959 22.8593 28.3343 22.9648 28.7097 22.984C30.2018 23.0703 31.5879 22.121 32.0885 20.7209C32.5794 19.3114 32.0789 17.7388 30.8564 16.8566C29.6434 15.984 27.9975 16.0031 26.823 16.9046C25.6102 17.8251 25.1482 19.4361 25.7064 20.8264C25.7931 21.047 25.7739 21.1812 25.6006 21.3539C24.5609 22.3703 23.5503 23.4059 22.501 24.4224C22.1256 24.7867 21.9716 25.1895 21.9716 25.6976C21.9812 29.5429 21.9812 33.3881 21.9812 37.2334C21.9812 37.3868 21.9812 37.5402 21.9812 37.6936C21.2881 37.7991 20.6529 37.895 20.0175 38.0005C19.8442 38.0005 19.6806 38.0005 19.5073 38.0005C19.5073 31.1347 19.5073 24.269 19.4977 17.4032C19.4977 17.1442 19.5555 17.01 19.8153 16.9046C21.3171 16.2429 22.0774 14.7086 21.7309 13.088C21.394 11.525 20.0657 10.451 18.4389 10.4415C16.8217 10.4319 15.4837 11.4867 15.1179 13.0497C14.7521 14.651 15.4933 16.2141 16.9949 16.8853C17.2741 17.01 17.3415 17.1538 17.3415 17.4415C17.3319 24.2977 17.3319 31.1443 17.3319 38.0005C17.1585 38.0005 16.9949 38.0005 16.8217 38.0005C16.1767 37.895 15.5318 37.7991 14.858 37.6936C14.858 37.521 14.858 37.3772 14.858 37.2334C14.858 33.3881 14.858 29.5429 14.8676 25.6976C14.8676 25.1799 14.7136 24.7771 14.3382 24.4224C13.2986 23.4155 12.2783 22.3703 11.2386 21.3539C11.0654 21.1812 11.0365 21.0565 11.1327 20.8264C11.7199 19.3401 11.1616 17.6428 9.80436 16.7511C8.47597 15.8881 6.7048 16.0702 5.55931 17.2018C4.42345 18.3237 4.2213 20.1072 5.08763 21.4306C5.98285 22.7922 7.68664 23.3484 9.19792 22.7634C9.40969 22.6771 9.53483 22.7058 9.69847 22.8689C10.6226 23.7991 11.5563 24.71 12.4708 25.6498C12.5959 25.7743 12.6825 26.0045 12.6825 26.1771C12.6921 29.6868 12.6921 33.1963 12.6921 36.706C12.6921 36.8306 12.6825 36.9553 12.6633 37.1567C11.8162 36.7922 11.0172 36.495 10.2568 36.121C7.04171 34.5675 4.43307 32.3238 2.60414 29.2456C0.101384 25.0361 -0.543556 20.51 0.438293 15.7442C1.9977 8.19761 7.7059 2.73183 15.3393 1.46608C16.0612 1.351 16.8024 1.2743 17.5437 1.18799Z" fill="#8A8A8A"/>
<path d="M8.92359 19.6248C8.91487 20.2586 8.43574 20.7186 7.79108 20.71C7.18128 20.7013 6.67601 20.1891 6.69343 19.5728C6.71085 18.9738 7.21612 18.479 7.80851 18.479C8.46188 18.4877 8.94101 18.9738 8.92359 19.6248Z" fill="#8A8A8A"/>
<path d="M28.7468 20.71C27.9407 20.7186 27.3415 20.2586 27.3307 19.6248C27.3198 18.9738 27.908 18.4877 28.725 18.479C29.4766 18.479 30.1193 18.9912 30.1193 19.5988C30.1084 20.2065 29.4876 20.7013 28.7468 20.71Z" fill="#8A8A8A"/>
<path d="M17.2909 13.7376C17.2909 12.9642 17.779 12.3433 18.4063 12.3433C19.0163 12.3433 19.5131 12.9425 19.5219 13.694C19.5305 14.5112 19.0426 15.1321 18.4063 15.1321C17.779 15.1321 17.2996 14.5329 17.2909 13.7376Z" fill="#8A8A8A"/>
</g>
<defs>
<clipPath id="clip0_341_78">
<rect width="201.875" height="38" fill="white" transform="translate(0 0.000488281)"/>
</clipPath>
</defs>
</svg>
