<svg width="194" height="38" viewBox="0 0 194 38" fill="none" xmlns="http://www.w3.org/2000/svg">
<path d="M3.66732 23.3517C4.76373 22.1419 5.82234 20.6674 6.72972 19.0039C7.1834 18.1721 7.6371 17.3026 8.05297 16.3951C8.46886 15.4877 8.88475 14.5426 9.33843 13.5218C9.60308 13.0303 9.82992 12.5011 10.2458 11.896C10.3592 11.7449 10.4726 11.5936 10.6617 11.4424C10.8507 11.2912 11.0776 11.1021 11.4556 10.9887C11.6447 10.9131 11.8337 10.8753 12.0606 10.8753C12.174 10.8753 12.2874 10.8753 12.3631 10.9131H12.4386C12.4008 10.9131 12.5521 10.9509 12.5521 10.9509H12.5899C12.8546 11.0265 13.0057 11.1399 13.157 11.2156C13.3082 11.329 13.4216 11.4046 13.535 11.518C13.9131 11.9339 14.1022 12.312 14.2534 12.6522C14.4046 12.9925 14.4803 13.2949 14.5937 13.5974C14.7827 14.2024 14.8961 14.8073 14.9718 15.3743C15.3876 17.6806 15.5767 19.9491 15.8413 22.1797C15.9925 23.2761 16.1437 24.3725 16.3706 25.3555C16.4084 25.5446 16.4462 25.7336 16.5218 25.9227C16.6731 25.7714 16.8243 25.6202 16.9756 25.4689C17.6182 24.8262 18.2231 24.07 18.7525 23.2761C19.8489 21.6882 20.7184 20.0247 21.399 18.399C22.0795 16.7732 22.5711 15.1475 22.9113 13.6352C23.4028 11.4046 23.5541 9.4386 23.5162 7.8507C21.0588 5.92252 17.9207 4.75049 14.5559 4.75049C6.50287 4.75049 0 11.2912 0 19.3064C0 21.4992 0.491493 23.5785 1.36107 25.4312C2.15502 24.9019 2.91117 24.1835 3.66732 23.3517Z" fill="#8A8A8A"/>
<path d="M26.4652 20.7809C25.4822 22.6713 24.2724 24.5617 22.7601 26.3386C22.004 27.246 21.1722 28.1156 20.1891 28.9473C19.6978 29.3632 19.1684 29.7791 18.5257 30.1572C18.1854 30.3462 17.8074 30.5353 17.3159 30.7243C17.1646 30.7621 17.0512 30.7998 16.9 30.8377L16.6731 30.8755C16.6353 30.8755 16.5597 30.8755 16.5219 30.9133H16.3329H16.1438H16.0682H15.7657C15.5011 30.8755 15.2364 30.8377 15.0096 30.7243C14.5181 30.5353 14.14 30.2706 13.8753 30.0059C13.6108 29.7413 13.4217 29.4766 13.3083 29.2498C13.0436 28.7961 12.8923 28.3802 12.7789 28.04C12.5521 27.3217 12.4765 26.6789 12.4009 26.0362C12.2496 24.7885 12.2119 23.6165 12.174 22.4445C12.1362 20.1382 12.174 17.8698 12.0228 15.7526C11.9849 15.2233 11.9472 14.6939 11.8716 14.2403C11.8716 14.1646 11.8338 14.0512 11.8338 13.9756C11.7203 14.1646 11.5691 14.3914 11.4557 14.5805C10.9264 15.4501 10.4349 16.3952 9.94339 17.3026C9.41409 18.21 8.88479 19.0796 8.31767 19.9114C7.18346 21.5749 5.93581 23.0494 4.65035 24.2215C3.74297 25.0532 2.8356 25.7715 1.92822 26.3764C4.4235 30.8377 9.18724 33.8623 14.6693 33.8623C22.7223 33.8623 29.2252 27.3217 29.2252 19.3064C29.2252 17.9832 29.0361 16.6977 28.7337 15.4879C28.1288 17.2271 27.3726 19.0039 26.4652 20.7809Z" fill="#8A8A8A"/>
<path d="M16.8242 24.5618C16.6353 23.6544 16.484 22.6714 16.3706 21.8018C16.2572 21.0457 16.1815 20.2895 16.1059 19.5334C15.9547 18.0967 15.7657 16.5844 15.501 15.1099C15.3876 14.5806 15.2742 13.9757 15.0851 13.2951C15.0095 13.0306 14.8961 12.6902 14.7449 12.3121V12.2744C14.5936 11.9342 14.4046 11.5182 13.9509 11.0645C13.8375 10.9511 13.6862 10.8377 13.4972 10.6865C13.3081 10.573 13.1191 10.4596 12.8166 10.3462L12.7411 10.3084C12.6655 10.2706 12.5898 10.2706 12.5521 10.2706H12.5142C12.363 10.2328 12.2496 10.2328 12.1362 10.2328C11.8715 10.2328 11.6069 10.2706 11.38 10.3462C10.9263 10.4974 10.5861 10.7243 10.397 10.9133C10.1702 11.1023 10.0189 11.2914 9.90552 11.4426C9.48963 12.0097 9.26279 12.5012 8.99813 12.9549L8.92252 13.1061C8.69567 13.6355 8.46884 14.127 8.24199 14.6184C8.05295 15.0721 7.82611 15.5259 7.63708 15.9417C7.18338 16.8869 6.76749 17.7186 6.35162 18.4748C5.44424 20.0627 4.46125 21.4616 3.36483 22.6336C2.83553 23.2007 2.26842 23.7678 1.70131 24.2593C1.02078 22.5958 0.6427 20.8567 0.6427 19.0419C0.6427 11.4426 6.95653 5.24219 14.707 5.24219C17.8072 5.24219 20.7184 6.18738 23.1759 8.00214C23.1759 9.77909 22.9491 11.556 22.571 13.333C22.2308 14.8831 21.7393 16.4332 21.0965 17.9076C20.3782 19.609 19.5086 21.1969 18.4878 22.5958C17.8451 23.3897 17.3157 24.0325 16.8242 24.5618Z" fill="#8A8A8A"/>
<path d="M14.6316 33.4085C9.67884 33.4085 5.10414 30.7998 2.57104 26.5654C3.40281 25.9982 4.19677 25.3177 4.95291 24.6371C6.27618 23.3895 7.52382 21.915 8.69585 20.2137C9.22515 19.4197 9.75446 18.5502 10.3594 17.5672C10.624 17.1135 10.8509 16.6599 11.1155 16.2061C11.2667 15.9793 11.3802 15.7146 11.5314 15.4878C11.5314 15.6012 11.5314 15.6768 11.5692 15.7902C11.6448 17.1514 11.6826 18.588 11.6826 20.0625C11.6826 20.8565 11.6826 21.6504 11.7204 22.4443C11.7582 23.5786 11.7961 24.7884 11.9473 26.0739C12.0229 26.6788 12.1363 27.3594 12.3631 28.1533C12.4766 28.5313 12.6278 28.9473 12.9303 29.4765C13.1193 29.8168 13.3461 30.0815 13.5729 30.3462C13.8376 30.6107 14.2914 30.9511 14.8963 31.1779C15.1988 31.2913 15.5012 31.3669 15.7658 31.3669H16.1061H16.2195H16.4463L16.6732 31.329C16.7488 31.329 16.8622 31.2913 16.9001 31.2913L17.1269 31.2535C17.3159 31.2156 17.4294 31.1779 17.5806 31.14C18.1477 30.9511 18.5258 30.762 18.866 30.5351C19.6222 30.0815 20.1515 29.6656 20.6052 29.2875C21.5126 28.5313 22.3443 27.6618 23.2139 26.6032C24.6128 24.9018 25.8982 23.0114 26.9947 20.932C27.5996 19.7601 28.1666 18.5502 28.6203 17.3025C28.696 17.9452 28.7715 18.588 28.7715 19.2686C28.696 27.0947 22.3822 33.4085 14.6316 33.4085Z" fill="#8A8A8A"/>
<path d="M38.1876 29.6881V8.07556H42.3249L55.0762 23.6366H53.0694V8.07556H58.0094V29.6881H53.903L41.1207 14.1271H43.1276V29.6881H38.1876ZM71.0267 29.9351C69.1332 29.9351 67.4659 29.5646 66.025 28.8236C64.6047 28.0826 63.5036 27.074 62.7214 25.7978C61.9393 24.5011 61.5481 23.0294 61.5481 21.3827C61.5481 19.7154 61.929 18.2438 62.6905 16.9676C63.4727 15.6708 64.5328 14.6623 65.8706 13.9418C67.2086 13.2008 68.7215 12.8303 70.4092 12.8303C72.0354 12.8303 73.4968 13.1803 74.7935 13.8801C76.1109 14.5593 77.1503 15.5473 77.9119 16.8441C78.6735 18.1203 79.0542 19.6537 79.0542 21.4444C79.0542 21.6297 79.044 21.8458 79.0234 22.0928C79.0028 22.3193 78.9823 22.5354 78.9616 22.7412H65.4692V19.9316H76.4299L74.5774 20.7652C74.5774 19.9007 74.4025 19.1494 74.0525 18.5113C73.7027 17.8733 73.2189 17.3793 72.6014 17.0293C71.9839 16.6588 71.2635 16.4736 70.4401 16.4736C69.6168 16.4736 68.8862 16.6588 68.248 17.0293C67.6305 17.3793 67.1468 17.8835 66.7969 18.5422C66.447 19.1802 66.272 19.9419 66.272 20.8269V21.5679C66.272 22.4736 66.4676 23.2764 66.8586 23.9762C67.2703 24.6554 67.8364 25.1803 68.5567 25.5508C69.2977 25.9008 70.1622 26.0757 71.1502 26.0757C72.0354 26.0757 72.8073 25.9419 73.4659 25.6743C74.1451 25.4068 74.7626 25.0054 75.3184 24.4702L77.881 27.2489C77.1195 28.1134 76.1623 28.7824 75.0096 29.2558C73.857 29.7086 72.5294 29.9351 71.0267 29.9351ZM79.7092 29.6881L87.15 19.9316L87.0574 22.5868L79.9253 13.0773H85.3284L89.8362 19.2832L87.7984 19.3449L92.4605 13.0773H97.5858L90.4228 22.4942V19.9007L97.8328 29.6881H92.3679L87.644 23.0808L89.6509 23.3587L84.9579 29.6881H79.7092ZM106.963 29.9351C105.008 29.9351 103.485 29.4411 102.394 28.4531C101.303 27.4445 100.757 25.9522 100.757 23.9762V9.40318H105.574V23.9144C105.574 24.6142 105.759 25.1598 106.13 25.5508C106.5 25.9213 107.005 26.1066 107.643 26.1066C108.404 26.1066 109.053 25.9008 109.588 25.4891L110.884 28.8853C110.39 29.2353 109.794 29.5028 109.094 29.6881C108.414 29.8528 107.704 29.9351 106.963 29.9351ZM98.1949 17.1528V13.4478H109.711V17.1528H98.1949ZM134.861 12.8303C136.179 12.8303 137.342 13.0979 138.35 13.6331C139.379 14.1476 140.182 14.9504 140.758 16.0413C141.355 17.1116 141.653 18.4908 141.653 20.1786V29.6881H136.837V20.9196C136.837 19.5816 136.559 18.5936 136.003 17.9556C135.447 17.3175 134.666 16.9984 133.657 16.9984C132.957 16.9984 132.329 17.1631 131.773 17.4924C131.218 17.8012 130.785 18.2746 130.477 18.9127C130.168 19.5507 130.013 20.3638 130.013 21.3518V29.6881H125.197V20.9196C125.197 19.5816 124.919 18.5936 124.363 17.9556C123.829 17.3175 123.057 16.9984 122.048 16.9984C121.348 16.9984 120.72 17.1631 120.164 17.4924C119.609 17.8012 119.176 18.2746 118.868 18.9127C118.559 19.5507 118.405 20.3638 118.405 21.3518V29.6881H113.588V13.0773H118.189V17.6159L117.324 16.2883C117.9 15.1563 118.714 14.302 119.763 13.7257C120.834 13.1287 122.048 12.8303 123.406 12.8303C124.93 12.8303 126.257 13.2214 127.389 14.0036C128.542 14.7651 129.303 15.9384 129.674 17.5233L127.976 17.0602C128.531 15.7634 129.417 14.7342 130.631 13.9727C131.866 13.2111 133.277 12.8303 134.861 12.8303ZM153.995 29.9351C152.226 29.9351 150.651 29.5646 149.271 28.8236C147.913 28.0826 146.832 27.074 146.029 25.7978C145.248 24.5011 144.856 23.0294 144.856 21.3827C144.856 19.7154 145.248 18.2438 146.029 16.9676C146.832 15.6708 147.913 14.6623 149.271 13.9418C150.651 13.2008 152.226 12.8303 153.995 12.8303C155.745 12.8303 157.309 13.2008 158.688 13.9418C160.068 14.6623 161.149 15.6605 161.93 16.9367C162.712 18.2129 163.103 19.6949 163.103 21.3827C163.103 23.0294 162.712 24.5011 161.93 25.7978C161.149 27.074 160.068 28.0826 158.688 28.8236C157.309 29.5646 155.745 29.9351 153.995 29.9351ZM153.995 25.9831C154.798 25.9831 155.519 25.7978 156.156 25.4273C156.795 25.0568 157.299 24.5319 157.669 23.8527C158.04 23.1529 158.225 22.3295 158.225 21.3827C158.225 20.4152 158.04 19.5919 157.669 18.9127C157.299 18.2334 156.795 17.7086 156.156 17.3381C155.519 16.9676 154.798 16.7823 153.995 16.7823C153.192 16.7823 152.473 16.9676 151.834 17.3381C151.196 17.7086 150.682 18.2334 150.29 18.9127C149.919 19.5919 149.734 20.4152 149.734 21.3827C149.734 22.3295 149.919 23.1529 150.29 23.8527C150.682 24.5319 151.196 25.0568 151.834 25.4273C152.473 25.7978 153.192 25.9831 153.995 25.9831ZM166.322 29.6881V6.77881H171.139V29.6881H166.322ZM185.799 29.6881V26.4462L185.49 25.7361V19.9316C185.49 18.9024 185.17 18.0996 184.533 17.5233C183.915 16.947 182.958 16.6588 181.661 16.6588C180.776 16.6588 179.902 16.8029 179.037 17.0911C178.193 17.3586 177.472 17.7291 176.876 18.2026L175.147 14.8372C176.052 14.1991 177.143 13.7051 178.42 13.3552C179.695 13.0052 180.992 12.8303 182.31 12.8303C184.842 12.8303 186.807 13.4273 188.207 14.6211C189.606 15.8149 190.306 17.6777 190.306 20.2094V29.6881H185.799ZM180.735 29.9351C179.438 29.9351 178.327 29.7189 177.401 29.2867C176.474 28.8339 175.764 28.2266 175.27 27.4651C174.776 26.7035 174.529 25.8492 174.529 24.9024C174.529 23.9144 174.766 23.0499 175.239 22.3089C175.733 21.5679 176.505 20.9916 177.555 20.5799C178.605 20.1477 179.973 19.9316 181.661 19.9316H186.077V22.7412H182.186C181.053 22.7412 180.272 22.9264 179.84 23.2969C179.428 23.6674 179.222 24.1306 179.222 24.6863C179.222 25.3038 179.459 25.7978 179.932 26.1683C180.426 26.5183 181.095 26.6932 181.939 26.6932C182.742 26.6932 183.462 26.5079 184.101 26.1374C184.738 25.7464 185.201 25.1803 185.49 24.4393L186.231 26.6623C185.881 27.7326 185.243 28.5457 184.317 29.1014C183.39 29.6572 182.196 29.9351 180.735 29.9351Z" fill="#8A8A8A"/>
</svg>
