<svg width="190" height="38" viewBox="0 0 190 38" fill="none" xmlns="http://www.w3.org/2000/svg">
<g clip-path="url(#clip0_341_74)">
<path d="M50.0386 30.0586C48.3096 30.0586 46.6526 29.8321 45.0678 29.3793C43.4828 28.9059 42.2066 28.2987 41.2393 27.5577L42.9374 23.791C43.8636 24.4497 44.9545 24.9951 46.2101 25.4273C47.4862 25.839 48.7728 26.0448 50.0695 26.0448C51.0575 26.0448 51.8499 25.9522 52.4469 25.7669C53.0644 25.5612 53.5172 25.2833 53.8054 24.9333C54.0935 24.5834 54.2376 24.182 54.2376 23.7292C54.2376 23.1529 54.0112 22.7 53.5584 22.3707C53.1055 22.0207 52.5086 21.7429 51.7676 21.5371C51.0266 21.3106 50.2032 21.1048 49.2976 20.9196C48.4125 20.7138 47.5171 20.4668 46.6115 20.1786C45.7263 19.8904 44.9134 19.5199 44.1724 19.0671C43.4314 18.6143 42.8241 18.0173 42.3508 17.2763C41.8978 16.5353 41.6715 15.5885 41.6715 14.4358C41.6715 13.2008 42.0008 12.079 42.6595 11.0705C43.3388 10.0413 44.3473 9.22825 45.6853 8.63133C47.0438 8.01383 48.7419 7.70508 50.7796 7.70508C52.1381 7.70508 53.476 7.86975 54.7934 8.19908C56.1107 8.50783 57.2736 8.98125 58.2823 9.61933L56.7385 13.417C55.7298 12.8407 54.7213 12.4186 53.7128 12.1511C52.7041 11.8629 51.7161 11.7188 50.7488 11.7188C49.7813 11.7188 48.9889 11.832 48.3714 12.0585C47.7539 12.2849 47.3113 12.5833 47.0438 12.9538C46.7761 13.3038 46.6424 13.7154 46.6424 14.1888C46.6424 14.7446 46.8687 15.1974 47.3216 15.5473C47.7744 15.8766 48.3714 16.1443 49.1124 16.3501C49.8534 16.5559 50.6663 16.7618 51.5515 16.9676C52.4571 17.1734 53.3525 17.4102 54.2376 17.6777C55.1432 17.9452 55.9666 18.3055 56.7076 18.7583C57.4486 19.2111 58.0455 19.8081 58.4984 20.5491C58.9717 21.2901 59.2085 22.2267 59.2085 23.3587C59.2085 24.5732 58.8689 25.6847 58.1896 26.6932C57.5104 27.7017 56.4915 28.5148 55.133 29.1323C53.7951 29.7498 52.0969 30.0586 50.0386 30.0586ZM70.5301 29.9351C68.6365 29.9351 66.9693 29.5646 65.5284 28.8236C64.1081 28.0826 63.007 27.074 62.2248 25.7978C61.4427 24.5011 61.0515 23.0294 61.0515 21.3827C61.0515 19.7155 61.4323 18.2438 62.1939 16.9676C62.9761 15.6708 64.0362 14.6623 65.374 13.9418C66.712 13.2008 68.2248 12.8303 69.9126 12.8303C71.5388 12.8303 73.0001 13.1803 74.2969 13.8801C75.6143 14.5593 76.6537 15.5473 77.4153 16.8441C78.1769 18.1203 78.5576 19.6537 78.5576 21.4445C78.5576 21.6297 78.5474 21.8458 78.5268 22.0928C78.5062 22.3193 78.4857 22.5354 78.465 22.7412H64.9726V19.9316H75.9333L74.0808 20.7652C74.0808 19.9007 73.9058 19.1494 73.5559 18.5113C73.206 17.8733 72.7223 17.3793 72.1048 17.0293C71.4873 16.6588 70.7669 16.4736 69.9435 16.4736C69.1202 16.4736 68.3895 16.6588 67.7514 17.0293C67.1339 17.3793 66.6502 17.8835 66.3003 18.5422C65.9504 19.1802 65.7754 19.9419 65.7754 20.827V21.568C65.7754 22.4737 65.971 23.2764 66.362 23.9762C66.7737 24.6555 67.3398 25.1803 68.0601 25.5508C68.8011 25.9008 69.6656 26.0757 70.6536 26.0757C71.5388 26.0757 72.3107 25.9419 72.9693 25.6743C73.6485 25.4068 74.266 25.0054 74.8218 24.4702L77.3844 27.2489C76.6228 28.1134 75.6657 28.7824 74.513 29.2558C73.3604 29.7086 72.0328 29.9351 70.5301 29.9351ZM89.7919 29.9351C88.0011 29.9351 86.4058 29.5749 85.0062 28.8545C83.6065 28.1135 82.5054 27.0946 81.7026 25.7978C80.9204 24.5011 80.5294 23.0294 80.5294 21.3827C80.5294 19.7155 80.9204 18.2438 81.7026 16.9676C82.5054 15.6708 83.6065 14.6623 85.0062 13.9418C86.4058 13.2008 88.0011 12.8303 89.7919 12.8303C91.5414 12.8303 93.0646 13.2008 94.3614 13.9418C95.6581 14.6623 96.6152 15.7017 97.2327 17.0602L93.4969 19.0671C93.0646 18.2849 92.5191 17.7086 91.8605 17.3381C91.2223 16.9676 90.5225 16.7823 89.761 16.7823C88.9376 16.7823 88.1966 16.9676 87.538 17.3381C86.8793 17.7086 86.3544 18.2335 85.9634 18.9127C85.5929 19.592 85.4076 20.4152 85.4076 21.3827C85.4076 22.3502 85.5929 23.1735 85.9634 23.8527C86.3544 24.532 86.8793 25.0568 87.538 25.4273C88.1966 25.7978 88.9376 25.9831 89.761 25.9831C90.5225 25.9831 91.2223 25.8082 91.8605 25.4582C92.5191 25.0877 93.0646 24.5011 93.4969 23.6983L97.2327 25.7361C96.6152 27.074 95.6581 28.1135 94.3614 28.8545C93.0646 29.5749 91.5414 29.9351 89.7919 29.9351ZM107.015 29.9351C105.635 29.9351 104.4 29.6675 103.31 29.1323C102.239 28.5971 101.406 27.7842 100.809 26.6932C100.212 25.5817 99.9133 24.1718 99.9133 22.4633V13.0773H104.73V21.7532C104.73 23.1322 105.018 24.1511 105.594 24.8098C106.191 25.4479 107.025 25.7669 108.095 25.7669C108.836 25.7669 109.495 25.6126 110.071 25.3038C110.647 24.9745 111.1 24.4805 111.43 23.8218C111.759 23.1426 111.924 22.2986 111.924 21.2901V13.0773H116.74V29.6881H112.171V25.1186L113.004 26.4462C112.449 27.5989 111.625 28.4736 110.534 29.0706C109.464 29.6469 108.291 29.9351 107.015 29.9351ZM121.202 29.6881V13.0773H125.803V17.7703L125.154 16.4118C125.648 15.2386 126.44 14.3535 127.532 13.7566C128.623 13.1391 129.95 12.8303 131.514 12.8303V17.2763C131.309 17.2558 131.124 17.2455 130.959 17.2455C130.794 17.2249 130.619 17.2146 130.434 17.2146C129.117 17.2146 128.046 17.5954 127.223 18.357C126.42 19.098 126.019 20.2609 126.019 21.8458V29.6881H121.202ZM142.501 29.9351C140.608 29.9351 138.941 29.5646 137.499 28.8236C136.079 28.0826 134.978 27.074 134.196 25.7978C133.414 24.5011 133.023 23.0294 133.023 21.3827C133.023 19.7155 133.404 18.2438 134.165 16.9676C134.948 15.6708 136.008 14.6623 137.345 13.9418C138.683 13.2008 140.196 12.8303 141.884 12.8303C143.511 12.8303 144.971 13.1803 146.268 13.8801C147.586 14.5593 148.625 15.5473 149.386 16.8441C150.149 18.1203 150.529 19.6537 150.529 21.4445C150.529 21.6297 150.519 21.8458 150.498 22.0928C150.478 22.3193 150.457 22.5354 150.436 22.7412H136.944V19.9316H147.904L146.052 20.7652C146.052 19.9007 145.877 19.1494 145.527 18.5113C145.178 17.8733 144.693 17.3793 144.076 17.0293C143.458 16.6588 142.739 16.4736 141.915 16.4736C141.092 16.4736 140.361 16.6588 139.722 17.0293C139.105 17.3793 138.622 17.8835 138.271 18.5422C137.922 19.1802 137.746 19.9419 137.746 20.827V21.568C137.746 22.4737 137.942 23.2764 138.333 23.9762C138.745 24.6555 139.312 25.1803 140.031 25.5508C140.772 25.9008 141.637 26.0757 142.625 26.0757C143.511 26.0757 144.282 25.9419 144.94 25.6743C145.62 25.4068 146.237 25.0054 146.793 24.4702L149.355 27.2489C148.594 28.1134 147.637 28.7824 146.484 29.2558C145.332 29.7086 144.005 29.9351 142.501 29.9351ZM162.819 29.6881V8.07558H167.821V29.6881H162.819ZM177.427 29.6881V12.1511H170.511V8.07558H189.344V12.1511H182.428V29.6881H177.427Z" fill="#8A8A8A"/>
<path d="M15.7115 37.488C15.4779 37.488 15.2374 37.488 15.0039 37.488C14.8058 37.4242 14.6007 37.3746 14.4025 37.3037C12.4427 36.6087 10.5679 35.7294 8.8274 34.5806C6.23087 32.8645 4.15788 30.6662 2.6792 27.9148C1.01657 24.8159 0.280767 21.4618 0.0968154 17.9871C-0.0376102 15.3208 0.00484125 12.6474 0.0119162 9.98112C0.0189913 7.93174 1.44107 6.37876 3.48575 6.13058C4.24278 6.03839 5.01397 5.98166 5.76391 5.86111C8.59393 5.41436 11.0914 4.25139 13.2139 2.3155C13.7304 1.84747 14.2539 1.40073 14.9332 1.18799C15.2162 1.18799 15.4991 1.18799 15.7821 1.18799C16.5534 1.41491 17.1122 1.95384 17.6853 2.47859C17.6924 2.48569 17.6995 2.49278 17.7136 2.49987C19.3126 3.88974 21.1309 4.87542 23.1685 5.464C24.534 5.86111 25.9419 5.99584 27.3428 6.14475C29.154 6.32913 30.6539 7.94593 30.7104 9.76837C30.8024 12.768 30.8732 15.7675 30.576 18.7671C30.3709 20.8307 30.0242 22.8588 29.3662 24.8302C28.0503 28.7516 25.7297 31.9213 22.3265 34.2828C20.2889 35.6868 18.0745 36.7505 15.7115 37.488ZM24.3854 19.3274C24.3571 14.3352 20.3102 10.286 15.3577 10.286C10.3981 10.286 6.35114 14.3422 6.32992 19.3274C6.30869 24.2912 10.4476 28.4324 15.3788 28.3828C20.3738 28.3332 24.4137 24.277 24.3854 19.3274Z" fill="#8A8A8A"/>
<path d="M22.362 19.3855C22.3191 23.3948 19.1391 26.526 15.3447 26.4674C11.4429 26.4016 8.37734 23.1899 8.42736 19.3124C8.48453 15.3398 11.6359 12.1427 15.4304 12.2085C19.3178 12.2744 22.4406 15.5153 22.362 19.3855ZM13.7582 20.8122C13.3937 20.4245 13.065 20.0514 12.7221 19.7001C12.2004 19.1734 11.5644 19.1369 11.1071 19.6123C10.664 20.066 10.7069 20.739 11.2143 21.2658C11.7574 21.8291 12.3076 22.3852 12.8578 22.9485C13.501 23.6069 14.0584 23.6069 14.7015 22.9485C16.2593 21.3536 17.8172 19.7586 19.3678 18.1638C19.4607 18.0687 19.5535 17.9736 19.6321 17.8711C20.0681 17.2639 19.7965 16.4152 19.0891 16.1812C18.6103 16.0275 18.2387 16.2104 17.9029 16.5543C16.5451 17.9516 15.1874 19.349 13.7582 20.8122Z" fill="#8A8A8A"/>
</g>
<defs>
<clipPath id="clip0_341_74">
<rect width="190" height="38" fill="white" transform="translate(0 0.000488281)"/>
</clipPath>
</defs>
</svg>
