<svg width="126" height="38" viewBox="0 0 126 38" fill="none" xmlns="http://www.w3.org/2000/svg">
<path d="M39.3763 29.6882V8.07568H48.7315C50.6663 8.07568 52.3335 8.39473 53.7332 9.03281C55.1328 9.65031 56.2134 10.5457 56.9751 11.7189C57.7366 12.8922 58.1175 14.2919 58.1175 15.9179C58.1175 17.5234 57.7366 18.9128 56.9751 20.0861C56.2134 21.2388 55.1328 22.1238 53.7332 22.7413C52.3335 23.3588 50.6663 23.6676 48.7315 23.6676H42.1551L44.3781 21.4754V29.6882H39.3763ZM53.1157 29.6882L47.7126 21.8459H53.054L58.5188 29.6882H53.1157ZM44.3781 22.0312L42.1551 19.6847H48.4536C49.9973 19.6847 51.1499 19.3554 51.9116 18.6967C52.6731 18.0174 53.054 17.0912 53.054 15.9179C53.054 14.7241 52.6731 13.7979 51.9116 13.1392C51.1499 12.4805 49.9973 12.1512 48.4536 12.1512H42.1551L44.3781 9.77381V22.0312ZM69.9843 29.9352C68.0907 29.9352 66.4234 29.5647 64.9825 28.8237C63.5623 28.0827 62.4611 27.0741 61.6789 25.7979C60.8968 24.5012 60.5056 23.0295 60.5056 21.3828C60.5056 19.7156 60.8865 18.2439 61.648 16.9677C62.4302 15.6709 63.4903 14.6624 64.8281 13.9419C66.1661 13.2009 67.679 12.8304 69.3668 12.8304C70.9929 12.8304 72.4543 13.1804 73.751 13.8802C75.0684 14.5594 76.1079 15.5474 76.8694 16.8442C77.6311 18.1204 78.0118 19.6538 78.0118 21.4446C78.0118 21.6298 78.0016 21.8459 77.9809 22.0929C77.9604 22.3194 77.9398 22.5355 77.9191 22.7413H64.4268V19.9317H75.3874L73.5349 20.7653C73.5349 19.9008 73.36 19.1495 73.01 18.5114C72.6602 17.8734 72.1764 17.3794 71.5589 17.0294C70.9414 16.6589 70.2211 16.4737 69.3977 16.4737C68.5744 16.4737 67.8437 16.6589 67.2055 17.0294C66.588 17.3794 66.1044 17.8836 65.7544 18.5423C65.4046 19.1804 65.2295 19.942 65.2295 20.8271V21.5681C65.2295 22.4738 65.4251 23.2765 65.8161 23.9763C66.2279 24.6556 66.7939 25.1804 67.5143 25.5509C68.2553 25.9009 69.1198 26.0758 70.1078 26.0758C70.9929 26.0758 71.7648 25.942 72.4234 25.6744C73.1026 25.4069 73.7201 25.0055 74.2759 24.4703L76.8385 27.2491C76.077 28.1136 75.1199 28.7825 73.9671 29.2559C72.8146 29.7087 71.4869 29.9352 69.9843 29.9352ZM88.011 29.9352C86.0555 29.9352 84.5323 29.4412 83.4415 28.4532C82.3505 27.4446 81.8051 25.9523 81.8051 23.9763V9.40331H86.6216V23.9146C86.6216 24.6144 86.8069 25.1599 87.1774 25.5509C87.5479 25.9214 88.0521 26.1067 88.6902 26.1067C89.4518 26.1067 90.1002 25.9009 90.6354 25.4892L91.9321 28.8854C91.4381 29.2354 90.8412 29.5029 90.1414 29.6882C89.4621 29.8529 88.752 29.9352 88.011 29.9352ZM79.2425 17.1529V13.4479H90.7589V17.1529H79.2425ZM94.6358 29.6882V13.0774H99.2362V17.7704L98.5878 16.4119C99.0818 15.2387 99.8742 14.3536 100.965 13.7567C102.056 13.1392 103.384 12.8304 104.948 12.8304V17.2764C104.742 17.2559 104.557 17.2456 104.392 17.2456C104.228 17.225 104.053 17.2147 103.867 17.2147C102.55 17.2147 101.48 17.5955 100.656 18.3571C99.8537 19.0981 99.4523 20.261 99.4523 21.8459V29.6882H94.6358ZM115.595 29.9352C113.825 29.9352 112.251 29.5647 110.871 28.8237C109.513 28.0827 108.432 27.0741 107.63 25.7979C106.847 24.5012 106.456 23.0295 106.456 21.3828C106.456 19.7156 106.847 18.2439 107.63 16.9677C108.432 15.6709 109.513 14.6624 110.871 13.9419C112.251 13.2009 113.825 12.8304 115.595 12.8304C117.345 12.8304 118.909 13.2009 120.288 13.9419C121.668 14.6624 122.748 15.6606 123.53 16.9368C124.312 18.213 124.703 19.695 124.703 21.3828C124.703 23.0295 124.312 24.5012 123.53 25.7979C122.748 27.0741 121.668 28.0827 120.288 28.8237C118.909 29.5647 117.345 29.9352 115.595 29.9352ZM115.595 25.9832C116.398 25.9832 117.119 25.7979 117.757 25.4274C118.395 25.0569 118.898 24.5321 119.269 23.8528C119.639 23.153 119.825 22.3296 119.825 21.3828C119.825 20.4154 119.639 19.5921 119.269 18.9128C118.898 18.2336 118.395 17.7087 117.757 17.3382C117.119 16.9677 116.398 16.7824 115.595 16.7824C114.793 16.7824 114.072 16.9677 113.434 17.3382C112.796 17.7087 112.281 18.2336 111.89 18.9128C111.52 19.5921 111.335 20.4154 111.335 21.3828C111.335 22.3296 111.52 23.153 111.89 23.8528C112.281 24.5321 112.796 25.0569 113.434 25.4274C114.072 25.7979 114.793 25.9832 115.595 25.9832Z" fill="#8A8A8A"/>
<path d="M9.05083 36.8131C8.49103 36.7122 7.92205 36.6388 7.37143 36.4919C3.36109 35.4457 0.534573 32.2062 0.112431 28.0674C-0.0252242 26.7643 0.0481895 25.4337 0.0298355 24.1121C0.0206585 23.5616 0.0298355 23.0109 0.0298355 22.4419C6.986 22.4419 13.9146 22.4419 20.834 22.4419C20.8525 22.4603 20.8616 22.4694 20.8616 22.4787C20.8249 24.7179 21.0819 26.9754 20.6139 29.1963C19.8063 33.0597 16.5576 36.1065 12.6483 36.6664C12.3637 36.7031 12.0885 36.758 11.8039 36.804C10.8862 36.8131 9.96853 36.8131 9.05083 36.8131Z" fill="#8A8A8A"/>
<path d="M24.1927 1.57324C24.982 2.04127 25.1012 2.40835 24.7617 3.27099C24.3212 4.39059 23.8807 5.50101 23.431 6.62059C23.174 7.26298 22.495 7.51077 21.9444 7.18957C21.5131 6.94179 21.3112 6.41871 21.4947 5.9415C21.9719 4.69342 22.4583 3.44536 22.9906 2.21563C23.1006 1.95868 23.431 1.78432 23.6513 1.57324C23.8256 1.57324 24.0092 1.57324 24.1927 1.57324Z" fill="#8A8A8A"/>
<path d="M9.44542 6.04233C9.44542 6.74897 9.44542 7.40972 9.44542 8.07045C9.44542 8.84133 9.4546 9.6122 9.43624 10.3739C9.43624 10.4932 9.35365 10.6584 9.2527 10.7134C8.04133 11.3558 7.4173 12.402 7.27047 13.7143C7.11447 15.1275 7.50907 16.3664 8.61949 17.3301C8.72043 17.4218 8.83056 17.532 8.95903 17.5687C9.42706 17.7154 9.47295 18.0367 9.4546 18.468C9.4179 19.0828 9.44542 19.6977 9.44542 20.3402C6.2977 20.3402 3.1867 20.3402 0.020642 20.3402C0.020642 20.2117 0.020642 20.0832 0.020642 19.9454C0.020642 17.2292 0.0757029 14.5035 0.00228685 11.7871C-0.0803061 8.80461 2.08546 6.66638 4.69173 6.19835C5.53602 6.04233 6.42619 6.06987 7.29801 6.04233C7.99546 6.02399 8.6929 6.04233 9.44542 6.04233Z" fill="#8A8A8A"/>
<path d="M11.5099 20.3403C11.5099 19.5418 11.5007 18.7619 11.5191 17.9818C11.5191 17.89 11.6384 17.7707 11.7302 17.7248C14.2355 16.3758 14.4098 12.4114 11.9963 10.9247C11.5833 10.6677 11.4915 10.4108 11.5007 9.97945C11.5283 8.68549 11.5099 7.39154 11.5099 6.10675C11.5466 6.07922 11.565 6.0517 11.5833 6.0517C13.1435 6.07922 14.7035 5.89568 16.2544 6.18017C18.6037 6.6115 20.3566 8.31841 20.7879 10.5576C20.8521 10.8696 20.8704 11.2 20.8797 11.512C20.8888 14.3569 20.8797 17.2018 20.8797 20.0466C20.8797 20.1384 20.8797 20.221 20.8797 20.3312C17.7503 20.3403 14.6576 20.3403 11.5099 20.3403Z" fill="#8A8A8A"/>
<path d="M28.5888 8.24476C28.5704 8.60267 28.3961 8.94222 28.0015 9.11658C26.8359 9.6672 25.6614 10.2086 24.4774 10.7409C23.936 10.9795 23.3579 10.7501 23.1193 10.2362C22.8807 9.72226 23.0826 9.12576 23.624 8.87797C24.7804 8.32735 25.9458 7.78591 27.1113 7.26283C27.8271 6.9508 28.5796 7.42801 28.5888 8.24476Z" fill="#8A8A8A"/>
<path d="M30.3232 14.4672C30.3232 15.2748 29.6808 15.7979 29.0293 15.5776C27.7628 15.1463 26.5056 14.6783 25.2575 14.201C24.7436 13.9992 24.5233 13.4118 24.716 12.9071C24.9088 12.384 25.4594 12.1087 26.0008 12.2922C27.2306 12.7235 28.4511 13.1733 29.6716 13.6321C30.103 13.7973 30.314 14.1368 30.3232 14.4672Z" fill="#8A8A8A"/>
<path d="M9.30811 14.2283C9.30811 13.7419 9.41822 13.3013 9.72107 12.916C10.1432 12.3929 10.7489 12.3836 11.1894 12.8884C11.7859 13.5767 11.7767 14.9165 11.1802 15.5956C10.7489 16.082 10.1524 16.082 9.73025 15.5681C9.41823 15.1827 9.30811 14.7238 9.30811 14.2283Z" fill="#8A8A8A"/>
</svg>
