<svg width="180" height="38" viewBox="0 0 180 38" fill="none" xmlns="http://www.w3.org/2000/svg">
<path d="M41.75 29.6878V8.07528H45.8872L55.088 23.3275H52.8959L61.9422 8.07528H66.0486L66.1104 29.6878H61.4174L61.3865 15.2692H62.251L55.0262 27.403H52.7724L45.3932 15.2692H46.443V29.6878H41.75ZM70.8984 29.6878V13.077H75.7149V29.6878H70.8984ZM73.3066 10.7614C72.4216 10.7614 71.7011 10.5041 71.1454 9.98953C70.5896 9.47495 70.3117 8.83686 70.3117 8.07528C70.3117 7.31371 70.5896 6.67561 71.1454 6.16104C71.7011 5.64646 72.4216 5.38916 73.3066 5.38916C74.1917 5.38916 74.9121 5.63616 75.4679 6.13016C76.0236 6.60358 76.3015 7.22108 76.3015 7.98266C76.3015 8.78541 76.0236 9.45436 75.4679 9.98953C74.9327 10.5041 74.2123 10.7614 73.3066 10.7614ZM90.2811 12.83C91.5985 12.83 92.7718 13.0976 93.8008 13.6328C94.8506 14.1473 95.674 14.9501 96.2708 16.041C96.8678 17.1113 97.1662 18.4905 97.1662 20.1783V29.6878H92.3497V20.9193C92.3497 19.5813 92.0513 18.5933 91.4543 17.9553C90.8781 17.3172 90.0548 16.9982 88.9843 16.9982C88.2228 16.9982 87.5332 17.1629 86.9157 17.4922C86.3189 17.8009 85.8454 18.2846 85.4955 18.9433C85.1662 19.602 85.0015 20.4458 85.0015 21.475V29.6878H80.185V13.077H84.7854V17.6774L83.9208 16.288C84.5178 15.1765 85.372 14.3224 86.4835 13.7254C87.595 13.1285 88.8608 12.83 90.2811 12.83ZM101.532 29.6878V13.077H106.349V29.6878H101.532ZM103.94 10.7614C103.055 10.7614 102.335 10.5041 101.779 9.98953C101.223 9.47495 100.946 8.83686 100.946 8.07528C100.946 7.31371 101.223 6.67561 101.779 6.16104C102.335 5.64646 103.055 5.38916 103.94 5.38916C104.825 5.38916 105.546 5.63616 106.102 6.13016C106.657 6.60358 106.935 7.22108 106.935 7.98266C106.935 8.78541 106.657 9.45436 106.102 9.98953C105.566 10.5041 104.846 10.7614 103.94 10.7614ZM118.723 29.9348C116.953 29.9348 115.378 29.5643 113.999 28.8233C112.64 28.0823 111.56 27.0737 110.757 25.7975C109.975 24.5008 109.584 23.0291 109.584 21.3824C109.584 19.7152 109.975 18.2435 110.757 16.9673C111.56 15.6705 112.64 14.662 113.999 13.9415C115.378 13.2005 116.953 12.83 118.723 12.83C120.472 12.83 122.037 13.2005 123.416 13.9415C124.794 14.662 125.875 15.6602 126.658 16.9364C127.44 18.2126 127.831 19.6946 127.831 21.3824C127.831 23.0291 127.44 24.5008 126.658 25.7975C125.875 27.0737 124.794 28.0823 123.416 28.8233C122.037 29.5643 120.472 29.9348 118.723 29.9348ZM118.723 25.9828C119.525 25.9828 120.246 25.7975 120.884 25.427C121.522 25.0565 122.026 24.5317 122.397 23.8524C122.767 23.1526 122.953 22.3292 122.953 21.3824C122.953 20.415 122.767 19.5917 122.397 18.9124C122.026 18.2332 121.522 17.7083 120.884 17.3378C120.246 16.9673 119.525 16.782 118.723 16.782C117.92 16.782 117.2 16.9673 116.562 17.3378C115.923 17.7083 115.409 18.2332 115.018 18.9124C114.647 19.5917 114.462 20.415 114.462 21.3824C114.462 22.3292 114.647 23.1526 115.018 23.8524C115.409 24.5317 115.923 25.0565 116.562 25.427C117.2 25.7975 117.92 25.9828 118.723 25.9828ZM140.868 29.9348C139.469 29.9348 138.244 29.626 137.194 29.0085C136.144 28.391 135.322 27.4545 134.724 26.1989C134.148 24.9227 133.86 23.3172 133.86 21.3824C133.86 19.427 134.138 17.8215 134.693 16.5659C135.249 15.3104 136.052 14.3738 137.102 13.7563C138.151 13.1388 139.408 12.83 140.868 12.83C142.433 12.83 143.832 13.1902 145.067 13.9107C146.324 14.6105 147.312 15.5985 148.031 16.8747C148.772 18.1509 149.143 19.6534 149.143 21.3824C149.143 23.132 148.772 24.6448 148.031 25.921C147.312 27.1972 146.324 28.1852 145.067 28.885C143.832 29.5848 142.433 29.9348 140.868 29.9348ZM131.05 35.6775V13.077H135.65V16.4733L135.558 21.4133L135.867 26.3224V35.6775H131.05ZM140.035 25.9828C140.837 25.9828 141.548 25.7975 142.165 25.427C142.804 25.0565 143.307 24.5317 143.678 23.8524C144.07 23.1526 144.265 22.3292 144.265 21.3824C144.265 20.415 144.07 19.5917 143.678 18.9124C143.307 18.2332 142.804 17.7083 142.165 17.3378C141.548 16.9673 140.837 16.782 140.035 16.782C139.232 16.782 138.512 16.9673 137.873 17.3378C137.236 17.7083 136.731 18.2332 136.361 18.9124C135.99 19.5917 135.805 20.415 135.805 21.3824C135.805 22.3292 135.99 23.1526 136.361 23.8524C136.731 24.5317 137.236 25.0565 137.873 25.427C138.512 25.7975 139.232 25.9828 140.035 25.9828ZM162.285 29.6878V26.4459L161.976 25.7358V19.9313C161.976 18.9021 161.657 18.0993 161.019 17.523C160.402 16.9467 159.444 16.6585 158.148 16.6585C157.263 16.6585 156.388 16.8026 155.523 17.0908C154.679 17.3583 153.959 17.7288 153.362 18.2023L151.633 14.8369C152.539 14.1989 153.629 13.7049 154.906 13.3549C156.182 13.005 157.479 12.83 158.796 12.83C161.328 12.83 163.293 13.427 164.693 14.6208C166.093 15.8146 166.793 17.6774 166.793 20.2092V29.6878H162.285ZM157.221 29.9348C155.925 29.9348 154.813 29.7187 153.887 29.2864C152.961 28.8336 152.251 28.2263 151.757 27.4648C151.263 26.7032 151.016 25.849 151.016 24.9022C151.016 23.9142 151.252 23.0497 151.726 22.3087C152.22 21.5677 152.992 20.9914 154.041 20.5797C155.091 20.1474 156.46 19.9313 158.148 19.9313H162.563V22.7409H158.673C157.541 22.7409 156.758 22.9262 156.326 23.2967C155.914 23.6672 155.709 24.1303 155.709 24.686C155.709 25.3035 155.945 25.7975 156.419 26.168C156.913 26.518 157.581 26.6929 158.426 26.6929C159.228 26.6929 159.949 26.5077 160.587 26.1372C161.224 25.7461 161.688 25.18 161.976 24.439L162.717 26.662C162.367 27.7323 161.729 28.5454 160.803 29.1012C159.877 29.6569 158.683 29.9348 157.221 29.9348ZM171.152 29.6878V6.77854H175.968V29.6878H171.152Z" fill="#8A8A8A"/>
<path d="M15.1279 37.0872C10.4056 34.3094 5.69234 31.5316 0.933411 28.7259C1.04302 28.6513 1.1161 28.5954 1.19831 28.5487C2.9064 27.5421 4.61449 26.5353 6.32259 25.5193C6.53268 25.3981 6.67883 25.4074 6.87979 25.5286C9.4739 27.0666 12.0771 28.586 14.6712 30.1334C15.1828 30.441 15.6304 30.441 16.1418 30.1334C18.736 28.5954 21.3393 27.0666 23.9334 25.5379C24.0977 25.4447 24.2256 25.3701 24.4267 25.4914C26.1895 26.5447 27.9615 27.5793 29.7244 28.6233C29.761 28.6419 29.7975 28.6792 29.8706 28.7351C25.1207 31.5316 20.3984 34.3094 15.6761 37.0964C15.4933 37.0872 15.3107 37.0872 15.1279 37.0872Z" fill="#8A8A8A"/>
<path d="M14.4595 2.0918C14.4595 4.17677 14.4503 6.27093 14.4686 8.3559C14.4686 8.61307 14.3866 8.74167 14.1769 8.86107C11.5694 10.3674 8.97108 11.8921 6.36362 13.3892C5.88955 13.6648 5.67074 14.0322 5.67074 14.5833C5.67986 17.6051 5.67074 20.6177 5.67986 23.6395C5.67986 23.9152 5.60692 24.0621 5.36077 24.2091C3.70149 25.1643 2.04219 26.1287 0.392028 27.093C0.282624 27.1574 0.173219 27.2125 0.00911472 27.2951C0.00911472 27.1207 0.00911472 27.0012 0.00911472 26.8819C0.00911472 21.7015 0.0182339 16.5305 0 11.3502C0 10.7348 0.237039 10.3582 0.756706 10.0551C5.22402 7.47414 9.67308 4.87482 14.1313 2.28468C14.2225 2.22957 14.3137 2.15609 14.3957 2.0918C14.4139 2.0918 14.4322 2.0918 14.4595 2.0918Z" fill="#8A8A8A"/>
<path d="M16.8841 2.0918C17.604 2.52333 18.3237 2.96404 19.0435 3.3864C22.8702 5.61751 26.7061 7.84863 30.5418 10.0706C31.0612 10.3644 31.2708 10.7592 31.2708 11.356C31.2617 16.5344 31.2617 21.7036 31.2617 26.882C31.2617 27.0014 31.2617 27.1207 31.2617 27.2951C31.1158 27.2218 31.0248 27.1758 30.9337 27.1298C29.248 26.1474 27.5625 25.165 25.8769 24.1918C25.6582 24.0632 25.5854 23.9255 25.5854 23.6777C25.5944 20.6845 25.5763 17.6912 25.6036 14.6889C25.6036 14.0554 25.3667 13.6422 24.8201 13.33C22.2415 11.8518 19.6721 10.346 17.1029 8.8586C16.8933 8.73924 16.8022 8.6107 16.8022 8.35362C16.8112 6.2694 16.8112 4.17601 16.8112 2.0918C16.8386 2.0918 16.866 2.0918 16.8841 2.0918Z" fill="#8A8A8A"/>
<path d="M14.4663 27.762C13.8308 27.3868 13.257 27.0391 12.6744 26.6912C11.1827 25.8036 9.69972 24.9068 8.20796 24.019C8.04907 23.9276 7.93433 23.836 7.93433 23.6072C7.94315 21.1729 7.94315 18.7385 7.94315 16.2951C7.94315 16.2402 7.95197 16.1853 7.96081 16.0938C8.0579 16.1396 8.12852 16.1579 8.19914 16.2036C10.2117 17.4025 12.2243 18.6105 14.2368 19.8185C14.3428 19.8826 14.4575 20.029 14.4575 20.1387C14.4752 22.6555 14.4663 25.1722 14.4663 27.762Z" fill="#8A8A8A"/>
<path d="M23.3099 16.0938C23.3187 16.2404 23.3275 16.3505 23.3275 16.4604C23.3275 18.8161 23.3275 21.1809 23.3364 23.5365C23.3364 23.784 23.2657 23.9215 23.0538 24.0499C21.0671 25.2323 19.0803 26.4238 17.0936 27.6154C17.014 27.6612 16.9434 27.6979 16.8287 27.762C16.8198 27.6612 16.8022 27.5787 16.8022 27.4962C16.8022 25.0764 16.8022 22.6657 16.8022 20.246C16.8022 20.081 16.8198 19.9526 16.9876 19.8518C19.0538 18.6236 21.1111 17.3862 23.1774 16.1489C23.1951 16.1396 23.2304 16.1304 23.3099 16.0938Z" fill="#8A8A8A"/>
<path d="M8.86786 14.2084C9.46514 13.8694 10.044 13.5482 10.6137 13.2269C12.2126 12.3346 13.8115 11.4333 15.4103 10.5499C15.5205 10.4874 15.7228 10.4696 15.833 10.532C17.9832 11.7189 20.1242 12.9236 22.2743 14.1282C22.3111 14.146 22.3478 14.1817 22.403 14.2264C22.2927 14.2888 22.2008 14.3513 22.0998 14.4049C20.0415 15.5559 17.9923 16.7071 15.934 17.8671C15.7228 17.9921 15.5665 17.9921 15.346 17.8671C13.2877 16.6982 11.2202 15.547 9.15272 14.3869C9.07002 14.3334 8.98731 14.2799 8.86786 14.2084Z" fill="#8A8A8A"/>
</svg>
