<svg width="47" height="60" viewBox="0 0 47 60" fill="none" xmlns="http://www.w3.org/2000/svg">
<path d="M39.8564 39.0937L39.8786 39.0302C40.0384 38.4303 40.2879 37.858 40.6187 37.3327C41.0387 36.8944 41.5238 36.5234 42.0569 36.2328C43.132 35.6844 44.0244 34.8353 44.6255 33.7887C45.0447 32.6642 45.1373 31.444 44.8926 30.269C44.7804 29.644 44.7637 29.0056 44.843 28.3756C45.0321 27.8022 45.307 27.2608 45.6581 26.7696C46.3974 25.7938 46.8416 24.6267 46.9383 23.4063C46.8412 22.1866 46.3974 21.02 45.6592 20.0442C45.3074 19.5528 45.0321 19.0109 44.8427 18.4369C44.7634 17.8073 44.7801 17.1694 44.8923 16.5448C45.1369 15.3699 45.0447 14.1499 44.6266 13.0251C44.0252 11.9795 43.1334 11.131 42.0592 10.5823C41.5256 10.291 41.04 9.91914 40.6197 9.47984C40.2887 8.95445 40.0388 8.38217 39.8784 7.78229C39.6013 6.60792 38.9937 5.53746 38.1275 4.69747C37.1425 4.02044 35.9796 3.64903 34.7845 3.62974C34.1775 3.60289 33.5785 3.48106 33.0093 3.26866C32.5015 2.94722 32.0453 2.55065 31.6563 2.09247C30.8989 1.14145 29.8784 0.434403 28.7219 0.0594923C27.5518 -0.106051 26.3588 0.0756907 25.2911 0.582158C24.7225 0.831747 24.1182 0.990624 23.5004 1.053C22.8831 0.990851 22.2794 0.832099 21.7113 0.582548C20.6434 0.0752542 19.4497 -0.105914 18.2794 0.0617058C17.1234 0.435246 16.1031 1.14096 15.3457 2.09078C14.9574 2.54965 14.5011 2.94632 13.9927 3.26697C13.4235 3.47936 12.8245 3.6012 12.2175 3.62805C11.0224 3.64734 9.85955 4.01875 8.87451 4.69577C8.00814 5.53633 7.40017 6.60708 7.12226 7.78177C6.96246 8.38167 6.71294 8.95398 6.38214 9.47932C5.9621 9.91765 5.47701 10.2886 4.94397 10.5792C3.86886 11.1276 2.97641 11.9767 2.3753 13.0233C1.95611 14.1478 1.86353 15.368 2.10824 16.543C2.22044 17.168 2.23717 17.8064 2.15785 18.4364C1.9687 19.0098 1.69388 19.5512 1.34273 20.0424C0.603385 21.0184 0.159114 22.1857 0.0625 23.4063C0.15966 24.626 0.603495 25.7925 1.34169 26.7683C1.69348 27.2597 1.96875 27.8017 2.15811 28.3756C2.2375 29.0054 2.22078 29.6436 2.1085 30.2684C1.86398 31.4432 1.9561 32.6633 2.37426 33.7881C2.97562 34.8336 3.86748 35.6822 4.94162 36.2308C5.47526 36.5222 5.9608 36.894 6.3811 37.3333C6.71209 37.8587 6.962 38.431 7.12239 39.0309L7.14648 39.1002C7.14231 39.1069 7.13528 39.1105 7.13125 39.1174L0.41472 50.7505C0.16923 51.1753 0.0487642 51.6607 0.0672095 52.151C0.0856548 52.6412 0.24226 53.1163 0.518974 53.5214C0.795687 53.9265 1.18124 54.2452 1.6312 54.4407C2.08116 54.6362 2.57721 54.7005 3.06216 54.6264L7.59532 53.9372L9.26618 58.2109C9.443 58.6687 9.74651 59.0667 10.1412 59.3583C10.5359 59.6499 11.0055 59.8231 11.495 59.8576C11.5624 59.8627 11.6298 59.8653 11.6972 59.8653C12.1538 59.8664 12.6025 59.7464 12.9976 59.5177C13.3927 59.289 13.7202 58.9596 13.9466 58.5631L20.9035 46.5119C21.1801 46.4228 21.4493 46.325 21.7096 46.23C22.2783 45.9805 22.8826 45.8218 23.5004 45.7595C24.1177 45.8217 24.7215 45.9804 25.2895 46.23C25.5499 46.3253 25.8222 46.4198 26.0989 46.5092L26.1046 46.5263L33.0538 58.5631C33.2803 58.9596 33.6077 59.289 34.0028 59.5177C34.398 59.7464 34.8467 59.8664 35.3032 59.8653C35.3706 59.8653 35.438 59.8627 35.5055 59.8576C35.9953 59.8229 36.4652 59.6496 36.8601 59.3577C37.2551 59.0659 37.5588 58.6677 37.7358 58.2096L39.4054 53.9372L43.9367 54.6264C44.4218 54.7009 44.9181 54.6368 45.3684 54.4415C45.8186 54.2462 46.2045 53.9276 46.4814 53.5224C46.7584 53.1172 46.9152 52.642 46.9337 52.1516C46.9522 51.6611 46.8317 51.1754 46.5861 50.7505L39.8564 39.0937ZM11.6912 57.261L9.64275 52.0182C9.53425 51.7435 9.33592 51.5137 9.08008 51.3662C8.82423 51.2186 8.52597 51.1621 8.23387 51.2057L2.67049 52.0526L8.58349 41.8106C8.67392 41.9178 8.77071 42.0195 8.87333 42.1151C9.85838 42.7921 11.0212 43.1635 12.2164 43.1828C12.8233 43.2096 13.4223 43.3315 13.9915 43.5439C14.4994 43.8653 14.9556 44.2619 15.3445 44.7201C16.0275 45.5253 16.884 46.1655 17.8498 46.5924L11.6912 57.261ZM26.1828 43.7835C25.3321 43.4192 24.4243 43.2066 23.5004 43.1553C22.5764 43.206 21.6685 43.4186 20.8181 43.7835C20.2112 44.0796 19.5427 44.2278 18.8675 44.2158C18.222 43.9203 17.6569 43.4742 17.2196 42.9149C16.6321 42.2297 15.9294 41.6524 15.1431 41.2092C14.305 40.8519 13.4109 40.6437 12.5011 40.5941C11.8106 40.5932 11.1307 40.4229 10.5213 40.0981C10.0673 39.5481 9.74886 38.8991 9.59171 38.2034C9.34998 37.3187 8.95798 36.4821 8.43283 35.7302C7.83732 35.0444 7.12636 34.4682 6.33214 34.0275C5.69594 33.7146 5.14573 33.2511 4.72925 32.6773C4.55266 31.9865 4.54133 31.2638 4.69618 30.5679C4.85058 29.6555 4.8523 28.7239 4.70126 27.811C4.45866 26.944 4.06944 26.1248 3.55045 25.3891C3.09857 24.8101 2.79517 24.1294 2.66671 23.4063C2.795 22.6832 3.09842 22.0026 3.55045 21.4238C4.06993 20.6884 4.4592 19.8691 4.70126 19.0019C4.85234 18.0889 4.85063 17.1571 4.69618 16.2447C4.54102 15.5487 4.5528 14.8258 4.73055 14.1353C5.14657 13.5601 5.69707 13.0956 6.33397 12.7822C7.12859 12.3422 7.84 11.7664 8.43596 11.0809C8.95988 10.3292 9.35085 9.49305 9.59184 8.609C9.74969 7.91303 10.0685 7.26376 10.5226 6.71326C11.132 6.3885 11.8119 6.2182 12.5024 6.21729C13.4124 6.16758 14.3066 5.95928 15.1448 5.60178C15.9316 5.15935 16.6345 4.58197 17.2213 3.89602C17.6587 3.33721 18.2238 2.89156 18.8692 2.59652C19.5439 2.58573 20.2117 2.73382 20.8186 3.02882C21.6691 3.39308 22.5767 3.60575 23.5004 3.65721C24.4244 3.60651 25.3323 3.3939 26.1828 3.02908C26.7901 2.73419 27.4582 2.58611 28.1333 2.59678C28.7788 2.89225 29.344 3.33835 29.7813 3.89758C30.3687 4.58282 31.0715 5.1601 31.8577 5.60334C32.6959 5.96066 33.59 6.16883 34.4997 6.21846C35.1903 6.21938 35.8701 6.38968 36.4796 6.71443C36.9336 7.26445 37.252 7.91346 37.4091 8.60913C37.6509 9.49384 38.0429 10.3304 38.568 11.0823C39.1635 11.7681 39.8745 12.3444 40.6687 12.785C41.3049 13.098 41.8551 13.5615 42.2716 14.1353C42.4482 14.826 42.4595 15.5487 42.3047 16.2447C42.1503 17.157 42.1485 18.0886 42.2996 19.0015C42.5422 19.8686 42.9314 20.6877 43.4504 21.4234C43.9023 22.0024 44.2057 22.6831 44.3341 23.4063C44.2058 24.1293 43.9024 24.81 43.4504 25.3887C42.9309 26.1242 42.5416 26.9434 42.2996 27.8106C42.1485 28.7236 42.1502 29.6554 42.3047 30.5679C42.4598 31.2639 42.448 31.9867 42.2703 32.6773C41.8543 33.2524 41.3038 33.7169 40.6669 34.0303C39.8723 34.4703 39.1608 35.0461 38.5649 35.7316C38.041 36.4834 37.65 37.3195 37.409 38.2035C37.2512 38.8996 36.9324 39.549 36.4783 40.0995C35.8688 40.4243 35.189 40.5946 34.4984 40.5955C33.5885 40.6452 32.6943 40.8535 31.856 41.211C31.0692 41.6534 30.3664 42.2308 29.7796 42.9168C29.3422 43.4756 28.777 43.9212 28.1316 44.2163C27.4571 44.2262 26.7897 44.0779 26.1828 43.7835ZM38.7676 51.2055C38.4756 51.1622 38.1775 51.2189 37.9217 51.3664C37.666 51.5139 37.4676 51.7435 37.3587 52.018L35.3096 57.261L29.1507 46.5924C30.1161 46.166 30.9723 45.5265 31.6551 44.7218C32.0434 44.2629 32.4997 43.8662 33.0081 43.5456C33.5774 43.3332 34.1764 43.2113 34.7833 43.1845C35.9784 43.1652 37.1413 42.7938 38.1263 42.1168C38.2294 42.0207 38.3267 41.9186 38.4175 41.8109L44.3304 52.0526L38.7676 51.2055ZM39.1257 23.4063C39.1257 20.3159 38.2093 17.2949 36.4924 14.7253C34.7754 12.1558 32.3351 10.153 29.48 8.97039C26.6248 7.78775 23.4831 7.47832 20.4521 8.08122C17.4211 8.68413 14.6369 10.1723 12.4517 12.3575C10.2664 14.5428 8.77828 17.3269 8.17538 20.3579C7.57247 23.3889 7.8819 26.5307 9.06454 29.3858C10.2472 32.2409 12.2499 34.6813 14.8195 36.3982C17.389 38.1151 20.41 39.0315 23.5004 39.0315C27.6431 39.027 31.6148 37.3793 34.5442 34.45C37.4735 31.5207 39.1212 27.549 39.1257 23.4063ZM23.5004 36.4273C20.9251 36.4273 18.4076 35.6637 16.2663 34.2329C14.125 32.8021 12.4561 30.7685 11.4705 28.3892C10.485 26.0099 10.2271 23.3918 10.7296 20.866C11.232 18.3401 12.4721 16.02 14.2931 14.199C16.1142 12.378 18.4343 11.1378 20.9601 10.6354C23.486 10.133 26.1041 10.3908 28.4834 11.3764C30.8627 12.3619 32.8963 14.0308 34.327 16.1721C35.7578 18.3135 36.5215 20.8309 36.5215 23.4063C36.5174 26.8584 35.1443 30.168 32.7032 32.6091C30.2622 35.0501 26.9526 36.4233 23.5004 36.4273ZM29.4311 18.4166C29.5735 18.5114 29.6958 18.6333 29.791 18.7753C29.8862 18.9174 29.9524 19.0769 29.986 19.2446C30.0195 19.4123 30.0197 19.5849 29.9864 19.7527C29.9532 19.9204 29.8872 20.08 29.7922 20.2222L24.5838 28.0349C24.4769 28.195 24.3358 28.3295 24.1706 28.4286C24.0055 28.5276 23.8204 28.5889 23.6288 28.6078C23.5856 28.6121 23.5423 28.6147 23.5004 28.6147C23.1551 28.6146 22.824 28.4774 22.5798 28.2332L18.6735 24.3269C18.4363 24.0813 18.3051 23.7524 18.308 23.411C18.311 23.0695 18.448 22.743 18.6894 22.5015C18.9308 22.2601 19.2574 22.1232 19.5988 22.1202C19.9402 22.1172 20.2691 22.2485 20.5147 22.4857L23.2982 25.2692L27.6254 18.7777C27.8171 18.4905 28.1149 18.2911 28.4535 18.2234C28.7921 18.1557 29.1437 18.2252 29.4311 18.4166Z" fill="white"/>
</svg>
