<svg width="157" height="48" viewBox="0 0 157 48" fill="none" xmlns="http://www.w3.org/2000/svg">
<path d="M24.0421 26.0743C28.1032 27.968 32.2942 28.9083 35.8368 28.7233C35.8586 28.7222 35.8789 28.7197 35.9003 28.7187L36.1546 3.53881C36.1632 2.64854 35.1697 2.11394 34.4319 2.61175L13.251 16.9012C14.9669 20.1705 18.9297 23.6898 24.0421 26.0743Z" fill="#FEC63F"/>
<path d="M34.9524 31.1411C31.2578 31.1411 27.0678 30.128 23.0299 28.245C17.4597 25.6473 13.2708 21.9427 11.2571 18.2466L0.488043 25.512C-0.353309 26.0794 -0.048676 27.3861 0.956947 27.5225L19.0424 29.9819C20.1063 30.1266 21.0826 30.6519 21.7893 31.4604L33.8047 45.1995C34.4725 45.9633 35.7309 45.498 35.7413 44.4831L35.8763 31.1172C35.572 31.1318 35.2645 31.1411 34.9524 31.1411Z" fill="#FEC63F"/>
<path d="M34.953 29.2341C31.2579 29.2341 27.068 28.2206 23.0305 26.3379C13.5306 21.9076 8.03826 14.2576 10.5266 8.9213C13.0153 3.58571 22.4062 2.87613 31.9057 7.30645C35.0137 8.7556 37.8306 10.6351 40.0514 12.7417C40.5317 13.197 40.5514 13.9548 40.0964 14.4347C39.6411 14.9143 38.8833 14.9343 38.4037 14.4794C36.3675 12.5481 33.7706 10.8183 30.8937 9.47661C22.8873 5.74266 14.5541 5.95157 12.6975 9.93335C10.8409 13.9148 16.0365 20.4328 24.0432 24.1667C28.1043 26.0605 32.2932 27.0022 35.8379 26.8154C39.1122 26.6443 41.3856 25.5412 42.2394 23.71C43.1301 21.8005 42.2684 19.62 41.3888 18.1265C41.0531 17.5566 41.2431 16.8227 41.8127 16.487C42.3826 16.1514 43.1169 16.341 43.4525 16.9113C45.1085 19.7221 45.4488 22.4965 44.4103 24.7227C43.1644 27.395 40.1643 28.9877 35.9636 29.2077C35.6315 29.2255 35.294 29.2341 34.953 29.2341Z" fill="black"/>
<path d="M69.84 32.28C69.84 34.76 69.0933 36.6667 67.6 38C66.1067 39.3333 64.1733 40 61.8 40H54.24C54.1067 40 53.9867 39.96 53.88 39.88C53.8 39.7733 53.76 39.6533 53.76 39.52V12.48C53.76 12.3467 53.8 12.24 53.88 12.16C53.9867 12.0533 54.1067 12 54.24 12H60.92C63.5867 12 65.6667 12.64 67.16 13.92C68.68 15.2 69.44 17.1067 69.44 19.64C69.44 22.28 68.5333 24.2 66.72 25.4C66.6133 25.48 66.6 25.56 66.68 25.64C68.7867 27.1333 69.84 29.3467 69.84 32.28ZM59.6 16.84C59.4667 16.84 59.4 16.9067 59.4 17.04V23.32C59.4 23.4533 59.4667 23.52 59.6 23.52H61.04C61.9467 23.52 62.6533 23.24 63.16 22.68C63.6667 22.0933 63.92 21.28 63.92 20.24C63.92 19.1467 63.6667 18.3067 63.16 17.72C62.68 17.1333 61.9733 16.84 61.04 16.84H59.6ZM61.36 35.12C62.24 35.12 62.9333 34.8 63.44 34.16C63.9467 33.52 64.2 32.6133 64.2 31.44C64.2 30.2667 63.9467 29.3333 63.44 28.64C62.9333 27.9467 62.2533 27.6 61.4 27.6H59.6C59.4667 27.6 59.4 27.6667 59.4 27.8V34.92C59.4 35.0533 59.4667 35.12 59.6 35.12H61.36ZM73.0291 40C72.8957 40 72.7757 39.96 72.6691 39.88C72.5891 39.7733 72.5491 39.6533 72.5491 39.52V12.48C72.5491 12.3467 72.5891 12.24 72.6691 12.16C72.7757 12.0533 72.8957 12 73.0291 12H77.7091C77.8424 12 77.9491 12.0533 78.0291 12.16C78.1357 12.24 78.1891 12.3467 78.1891 12.48V39.52C78.1891 39.6533 78.1357 39.7733 78.0291 39.88C77.9491 39.96 77.8424 40 77.7091 40H73.0291ZM81.2878 40C81.1545 40 81.0345 39.96 80.9278 39.88C80.8478 39.7733 80.8078 39.6533 80.8078 39.52V35.48C80.8078 35.2667 80.8478 35.0667 80.9278 34.88L89.4878 17.08C89.5145 17 89.5145 16.9467 89.4878 16.92C89.4611 16.8667 89.4078 16.84 89.3278 16.84H81.2878C81.1545 16.84 81.0345 16.8 80.9278 16.72C80.8478 16.6133 80.8078 16.4933 80.8078 16.36V12.48C80.8078 12.3467 80.8478 12.24 80.9278 12.16C81.0345 12.0533 81.1545 12 81.2878 12H95.0478C95.1811 12 95.2878 12.0533 95.3678 12.16C95.4745 12.24 95.5278 12.3467 95.5278 12.48V16.52C95.5278 16.7067 95.4878 16.9067 95.4078 17.12L86.8478 34.92C86.8211 35 86.8211 35.0667 86.8478 35.12C86.8745 35.1467 86.9278 35.16 87.0078 35.16H95.0478C95.1811 35.16 95.2878 35.2133 95.3678 35.32C95.4745 35.4 95.5278 35.5067 95.5278 35.64V39.52C95.5278 39.6533 95.4745 39.7733 95.3678 39.88C95.2878 39.96 95.1811 40 95.0478 40H81.2878ZM111.052 12.32C111.159 12.1067 111.359 12 111.652 12H116.292C116.426 12 116.532 12.0533 116.612 12.16C116.719 12.24 116.772 12.3467 116.772 12.48V39.52C116.772 39.6533 116.719 39.7733 116.612 39.88C116.532 39.96 116.426 40 116.292 40H111.612C111.479 40 111.359 39.96 111.252 39.88C111.172 39.7733 111.132 39.6533 111.132 39.52V21.56C111.132 21.4533 111.106 21.4 111.052 21.4C110.999 21.4 110.946 21.44 110.892 21.52L107.772 27.04C107.639 27.2533 107.532 27.36 107.452 27.36C107.372 27.36 107.266 27.2533 107.132 27.04L104.012 21.52C103.959 21.44 103.906 21.4 103.852 21.4C103.799 21.4 103.772 21.4533 103.772 21.56V39.52C103.772 39.6533 103.719 39.7733 103.612 39.88C103.532 39.96 103.426 40 103.292 40H98.6122C98.4789 40 98.3589 39.96 98.2522 39.88C98.1722 39.7733 98.1322 39.6533 98.1322 39.52V12.48C98.1322 12.3467 98.1722 12.24 98.2522 12.16C98.3589 12.0533 98.4789 12 98.6122 12H103.212C103.479 12 103.679 12.1067 103.812 12.32L107.372 18.68C107.452 18.7867 107.532 18.7867 107.612 18.68L111.052 12.32ZM131.926 40C131.606 40 131.433 39.8533 131.406 39.56L130.766 35.72C130.766 35.5867 130.686 35.52 130.526 35.52H125.446C125.286 35.52 125.206 35.5867 125.206 35.72L124.566 39.56C124.54 39.8533 124.366 40 124.046 40H119.366C119.02 40 118.886 39.8267 118.966 39.48L124.846 12.44C124.9 12.1467 125.073 12 125.366 12H130.766C131.06 12 131.233 12.1467 131.286 12.44L137.126 39.48L137.166 39.64C137.166 39.88 137.02 40 136.726 40H131.926ZM126.006 30.96C126.006 31.0933 126.06 31.16 126.166 31.16H129.766C129.9 31.16 129.953 31.0933 129.926 30.96L128.046 20.04C128.02 19.96 127.98 19.92 127.926 19.92C127.873 19.92 127.833 19.96 127.806 20.04L126.006 30.96ZM139.22 40C139.034 40 138.914 39.9467 138.86 39.84C138.807 39.7333 138.807 39.6 138.86 39.44L144.3 26.12C144.327 26.04 144.327 25.96 144.3 25.88L138.86 12.56C138.834 12.5067 138.82 12.4267 138.82 12.32C138.82 12.1067 138.954 12 139.22 12H144.02C144.287 12 144.46 12.1333 144.54 12.4L147.22 20.08C147.247 20.16 147.287 20.2 147.34 20.2C147.394 20.2 147.434 20.16 147.46 20.08L150.14 12.4C150.22 12.1333 150.394 12 150.66 12H155.42C155.607 12 155.727 12.0533 155.78 12.16C155.834 12.2667 155.834 12.4 155.78 12.56L150.34 25.88C150.314 25.96 150.314 26.04 150.34 26.12L155.78 39.44C155.807 39.4933 155.82 39.5733 155.82 39.68C155.82 39.8933 155.687 40 155.42 40H150.66C150.394 40 150.22 39.8667 150.14 39.6L147.46 31.96C147.434 31.88 147.394 31.84 147.34 31.84C147.287 31.84 147.247 31.88 147.22 31.96L144.5 39.6C144.42 39.8667 144.247 40 143.98 40H139.22Z" fill="white"/>
</svg>
